<?xml version="1.0" encoding="UTF-8"?>
<svg id="Capa_1" xmlns="http://www.w3.org/2000/svg" version="1.1" viewBox="0 0 1080 1080">
  <!-- Generator: Adobe Illustrator 30.2.1, SVG Export Plug-In . SVG Version: 2.1.1 Build 1)  -->
  <defs>
    <style>
      .st0 {
        fill: #fff;
      }

      .st1 {
        fill: #eb0a5c;
      }
    </style>
  </defs>
  <rect class="st1" x="-5.58" y="-5.58" width="1091.16" height="1091.16"/>
  <path class="st0" d="M752.21,380.93c-9.78-6.55-72.03-46.88-150.17-31.2-19.7,3.95-37.16,10.83-52.45,19.12-8.32-2.05-18.33-4.36-27.03-5.93-2.39-.45-4.89-.86-7.51-1.2-1.43-.19-2.84-.35-4.22-.48h-.02c-59.23-6.44-149.07-4.04-222.35,65.2-34.43,32.4-120.5,154.01-24.04,240.02,21.56,18.4,43.35,24.05,68.29,23.87l-.09.03,391.61,1.65c12.68.31,25.94.38,39.7.17h.15c5.24-.09,10.55-.2,15.94-.38,27.6-.89,39.84-2.46,51.03-11.33,55.63-44.11,31.29-225.7-78.86-299.53ZM470.1,443.08c-44.64,70.87-12.41,119.62-62.66,165.24-34.98,31.77-107.04,58.26-138.62-18.73-25.52-63.46,33.32-130.1,36.92-134.07,50.05-55.11,123.38-75.19,180.86-66.67,10.87,1.61,19.74,3.97,25.79,5.81-24.77,21.38-38.81,42.91-42.28,48.41Z"/>
</svg>